HIERARCHY
ROOT Hips
{
	OFFSET -0.179506 -22.333345 2.821913
	CHANNELS 6 Xposition Yposition Zposition Zrotation Yrotation Xrotation 
	JOINT LeftUpLeg
	{
		OFFSET 6.951974 -9.140623 -0.681533
		CHANNELS 3 Zrotation Yrotation Xrotation
		JOINT LeftLeg
		{
			OFFSET 3.427654 -37.519855 -0.449580
			CHANNELS 3 Zrotation Yrotation Xrotation
			JOINT LeftFoot
			{
				OFFSET -1.359570 -39.796059 -4.369333
				CHANNELS 3 Zrotation Yrotation Xrotation
				JOINT LeftToe
				{
					OFFSET 2.635814 -5.579078 11.928840
					CHANNELS 3 Zrotation Yrotation Xrotation
					End Site
					{
						OFFSET 0.000000 0.000000 0.000000
					}
				}
			}
		}
	}
	JOINT RightUpLeg
	{
		OFFSET -6.767048 -9.052170 -0.431982
		CHANNELS 3 Zrotation Yrotation Xrotation
		JOINT RightLeg
		{
			OFFSET -3.829005 -38.256897 -0.885003
			CHANNELS 3 Zrotation Yrotation Xrotation
			JOINT RightFoot
			{
				OFFSET 1.577377 -39.841461 -4.231180
				CHANNELS 3 Zrotation Yrotation Xrotation
				JOINT RightToe
				{
					OFFSET -2.537174 -4.814398 12.334795
					CHANNELS 3 Zrotation Yrotation Xrotation
					End Site
					{
						OFFSET 0.000000 0.000000 0.000000
					}
				}
			}
		}
	}
	JOINT Spine
	{
		OFFSET -0.253288 10.896323 -2.669631
		CHANNELS 3 Zrotation Yrotation Xrotation
		JOINT Spine1
		{
			OFFSET 0.548704 13.518043 0.109247
			CHANNELS 3 Zrotation Yrotation Xrotation
			JOINT Spine2
			{
				OFFSET 0.145701 5.292222 2.542457
				CHANNELS 3 Zrotation Yrotation Xrotation
				JOINT Neck
				{
					OFFSET -0.277840 21.387037 -4.285703
					CHANNELS 3 Zrotation Yrotation Xrotation
					JOINT Head
					{
						OFFSET 0.515184 6.496960 5.134897
						CHANNELS 3 Zrotation Yrotation Xrotation
						End Site
						{
							OFFSET 0.000000 0.000000 0.000000
						}
					}
				}
				JOINT LeftShoulder
				{
					OFFSET 7.884473 12.174932 -3.408961
					CHANNELS 3 Zrotation Yrotation Xrotation
					JOINT LeftArm
					{
						OFFSET 9.097692 3.046888 -0.886815
						CHANNELS 3 Zrotation Yrotation Xrotation
						JOINT LeftForeArm
						{
							OFFSET 25.961220 -1.277207 -2.745643
							CHANNELS 3 Zrotation Yrotation Xrotation
							JOINT LeftHand
							{
								OFFSET 24.923361 0.898606 -0.117091
								CHANNELS 3 Zrotation Yrotation Xrotation
								End Site
								{
									OFFSET 0.000000 0.000000 0.000000
								}
							}
						}
					}
				}
				JOINT RightShoulder
				{
					OFFSET -8.175920 11.883285 -3.861528
					CHANNELS 3 Zrotation Yrotation Xrotation
					JOINT RightArm
					{
						OFFSET -9.601238 3.255117 -0.914307
						CHANNELS 3 Zrotation Yrotation Xrotation
						JOINT RightForeArm
						{
							OFFSET -25.374195 -1.332924 -2.140099
							CHANNELS 3 Zrotation Yrotation Xrotation
							JOINT RightHand
							{
								OFFSET -25.529810 0.777228 -0.555919
								CHANNELS 3 Zrotation Yrotation Xrotation
								End Site
								{
									OFFSET 0.000000 0.000000 0.000000
								}
							}
						}
					}
				}
			}
		}
	}
}
MOTION
Frames: 16
Frame Time: 0.033333
92.427155 -84.041656 85.158386 46.744530 -1.260060 67.242970 -1.055702 -6.946918 -16.850434 -13.724149 -1.970206 55.324734 7.148585 8.303802 -17.640963 nan nan nan -4.060236 3.717989 -19.398515 -2.506773 -7.613091 89.770023 3.010964 -3.324444 -9.606124 nan nan nan -2.632695 1.082789 32.222795 1.445233 -2.803595 1.997099 0.954917 -1.561418 1.492667 -3.585225 -0.193517 9.243739 7.427379 1.948649 -15.438800 -9.155421 -12.103891 3.075593 -36.228193 0.260779 7.107317 136.970511 -74.257435 -102.917974 -6.336322 -9.555758 5.555374 8.054914 5.150924 -3.874763 58.518519 -13.853513 4.012585 -15.963331 60.025112 10.547079 28.673768 -3.563894 -1.523508 
93.499443 -85.027046 85.303612 46.616973 -1.130571 67.286443 -0.892862 -6.120741 -16.125543 -14.304780 -2.168088 56.239618 7.311612 8.568206 -18.603132 nan nan nan -4.072480 3.783890 -22.390836 -2.132284 -7.823703 89.165417 3.204838 -4.094602 -9.384799 nan nan nan -2.520005 -0.068108 32.811330 1.225840 -2.652868 1.650642 0.857963 -1.494176 2.292991 -4.516405 -0.090992 9.398534 7.554490 2.734829 -16.076094 -7.909743 -12.912540 2.243008 -34.781639 -0.979089 6.745611 137.382163 -73.605798 -103.687769 -5.585885 -9.440396 6.325597 6.722801 4.980792 -4.212741 57.788113 -14.881591 3.857160 -15.773907 61.978437 11.443768 29.183071 -3.615863 -0.671656 
94.559212 -86.015205 85.485474 46.770311 -0.912196 67.366856 -0.698039 -5.306846 -15.563197 -14.670180 -2.386354 57.253212 7.509159 8.441495 -19.205658 nan nan nan -4.203229 3.538808 -25.130930 -2.035076 -8.267855 88.042802 3.287656 -5.124190 -8.731743 nan nan nan -2.560902 -1.485275 33.583555 1.027932 -2.534036 1.288849 0.881612 -1.397881 2.716559 -5.486788 -0.056490 9.907654 7.601047 3.655898 -16.810925 -6.776106 -13.418798 1.583466 -33.032168 -2.100704 5.970731 139.306286 -73.238734 -105.981909 -5.123125 -9.374355 6.760983 5.444833 4.975172 -4.120029 57.004634 -15.618713 3.621221 -16.112356 63.724379 10.958014 28.180447 -3.595984 -0.153125 
95.573608 -86.956146 85.649170 47.181365 -0.693434 67.502144 -0.405618 -4.809263 -15.325720 -14.999281 -2.248426 58.289419 7.544854 7.957477 -19.154712 nan nan nan -4.509282 2.947151 -27.723138 -2.323599 -8.841909 86.594784 3.107052 -6.219372 -7.655196 nan nan nan -2.804678 -2.669193 34.206766 1.052870 -2.623035 1.450007 1.117635 -1.398600 2.944960 -6.493373 0.085786 10.371632 7.673750 4.391960 -17.888335 -5.507487 -13.882683 0.854164 -31.458567 -3.219003 4.858202 141.251462 -72.925714 -108.143331 -4.867772 -9.078127 6.908369 4.010474 5.092411 -4.113863 56.252182 -16.189805 3.380580 -17.163531 65.511512 9.483004 28.211543 -3.724924 -1.856596 
96.567177 -87.887421 85.842560 47.537770 -0.532144 67.485051 -0.108060 -4.045781 -15.123812 -15.147151 -2.071778 59.424868 7.186406 7.177420 -18.514814 nan nan nan -4.824304 2.243751 -29.820903 -3.041454 -9.449089 84.711176 2.917608 -7.383411 -6.298866 nan nan nan -2.920557 -3.516067 35.083432 1.097867 -2.902043 1.749568 1.294440 -1.390596 3.051500 -7.498452 0.338145 10.939659 7.911840 4.984899 -19.380326 -4.260171 -14.360674 0.135914 -29.769376 -4.260452 3.595112 142.699529 -72.611282 -109.576389 -4.400621 -8.619364 7.441139 2.849176 5.167333 -4.203427 55.329433 -16.873445 3.070366 -19.020506 67.521907 7.413350 27.477136 -3.978815 -3.417676 
97.576889 -88.850464 86.099899 47.819866 -0.426499 67.417671 0.310381 -2.796489 -15.156322 -15.233330 -1.772583 60.865239 6.135045 6.393529 -17.429612 nan nan nan -5.119924 1.498728 -31.407008 -4.364964 -10.193764 82.415506 2.698566 -8.496808 -5.033885 nan nan nan -2.624519 -3.989438 36.598332 0.994162 -3.524546 0.941863 1.346455 -1.433331 3.346918 -8.559912 0.493963 12.016629 8.347250 5.680396 -21.013319 -3.477496 -15.165722 -0.159736 -27.492403 -4.723614 2.219095 143.532324 -72.252087 -110.509683 -3.558754 -8.709652 8.435800 2.103061 5.452194 -4.045865 54.250927 -17.723513 2.325774 -20.749690 69.560200 5.394495 24.916811 -3.755099 -4.075589 
98.560112 -89.800407 86.368317 48.265995 -0.277737 67.474093 0.863757 -1.516077 -15.786445 -15.351092 -1.389594 62.761043 4.894592 5.389148 -15.622038 nan nan nan -5.525660 0.667453 -32.750881 -6.008011 -11.310346 79.752132 2.712397 -9.553586 -3.790160 nan nan nan -2.020471 -4.098863 38.229970 1.007933 -4.488495 -0.213412 1.451760 -1.680979 3.584723 -9.712062 0.494388 13.212173 8.672188 6.716685 -22.487318 -2.643971 -16.216674 -0.210834 -25.535245 -4.708499 1.017405 143.235374 -71.792155 -110.341268 -2.432381 -9.067599 8.921361 1.058610 5.939001 -3.800210 53.617078 -18.440669 1.215275 -23.218348 71.294647 2.463011 23.550750 -3.647008 -5.175946 
99.531921 -90.717201 86.617683 48.922760 -0.115844 67.393516 1.510345 -0.691628 -16.572810 -15.463725 -0.719533 64.720769 3.627558 4.065630 -13.304024 nan nan nan -6.097889 -0.357170 -33.602739 -7.627483 -12.748745 76.823627 3.065390 -10.529746 -2.510163 nan nan nan -1.445999 -4.055689 39.751617 1.197462 -5.605411 -0.639971 1.674174 -1.999367 3.510331 -10.789923 0.477247 14.043261 8.861799 7.633244 -23.671475 -1.370862 -17.110943 -0.687663 -24.273386 -4.763945 0.174812 142.244879 -71.598703 -109.365995 -1.582120 -8.963547 8.849112 -0.309982 6.519980 -3.616980 53.408114 -18.842332 0.170932 -27.630990 72.689774 -2.178991 23.863040 -4.259929 -6.535611 
100.485016 -91.618088 86.841553 49.708027 0.101631 67.255695 2.352584 -0.002363 -17.574678 -15.681936 0.158575 66.844257 2.281799 2.597775 -10.694879 nan nan nan -6.659156 -1.505383 -34.058820 -9.005461 -14.377461 73.638152 3.261564 -11.418719 -1.173172 nan nan nan -0.799785 -4.076118 41.081128 1.406134 -6.675791 -0.596218 1.862608 -2.299931 3.404130 -11.737740 0.533051 14.494832 9.006086 8.341108 -24.694057 0.018460 -17.962271 -1.205336 -23.274956 -5.069470 -0.810358 140.231221 -71.657556 -107.385048 -0.732921 -8.895587 8.668772 -1.527461 7.132565 -3.323725 53.248755 -18.907989 -0.906904 -33.283144 73.844549 -7.914892 23.364782 -4.595924 -8.090093 
101.409256 -92.515465 87.024612 50.629259 0.301829 67.064204 3.140221 0.893650 -18.789113 -15.890171 0.953862 69.181683 1.334197 1.274140 -7.584213 nan nan nan -7.276319 -2.860507 -34.150228 -9.854595 -16.045520 70.283515 3.409942 -11.870477 0.143874 nan nan nan -0.021550 -4.038955 42.371329 1.610447 -7.736906 -0.556466 2.006042 -2.676923 3.495873 -12.599254 0.641326 14.403849 9.290387 8.691431 -25.410806 1.422380 -18.872666 -1.615184 -22.392894 -5.556887 -2.034761 137.160950 -71.864329 -105.084656 -0.238965 -9.106709 7.814956 -2.482644 7.601952 -2.934683 53.281971 -18.672262 -2.056012 -40.570839 74.697458 -15.234045 21.296234 -4.717200 -8.332827 
102.318123 -93.414124 87.190491 51.577673 0.533426 66.871541 3.919498 1.995127 -20.130814 -15.956820 1.704385 71.520352 0.929776 0.247324 -4.307665 nan nan nan -7.914880 -4.256161 -33.934649 -9.910116 -17.695602 66.633759 3.646477 -11.886310 1.608585 nan nan nan 0.832376 -4.007871 43.773010 1.859976 -8.700867 -0.541438 2.225366 -3.156448 3.334179 -13.386698 0.673302 14.170710 9.481118 9.003864 -25.687042 2.607347 -19.894666 -1.671009 -21.681475 -5.860810 -3.329499 133.463750 -72.203669 -102.201443 0.275341 -9.370213 6.760547 -3.316557 8.004265 -2.745299 53.388584 -18.303212 -2.984152 -48.201244 75.277807 -22.833883 18.007987 -4.692910 -7.713202 
103.251335 -94.337959 87.340904 52.383102 0.839087 66.672053 4.764129 3.325945 -21.362230 -15.627314 2.543688 73.735296 1.105419 -0.442007 -1.303526 nan nan nan -8.376797 -5.551254 -33.456408 -9.001577 -18.967689 62.567820 3.758925 -11.695257 3.295945 nan nan nan 1.626899 -4.075133 44.927918 2.159956 -9.468791 -0.015465 2.497795 -3.514291 2.888058 -14.229294 0.454888 13.915166 9.493815 9.341985 -25.742191 3.701411 -21.032787 -1.633323 -21.359040 -6.118502 -4.448594 129.083416 -72.488454 -98.042051 1.496928 -8.940647 6.374511 -4.196645 8.586251 -2.847750 53.617208 -17.792025 -3.698447 -55.480076 75.450463 -30.080507 15.292834 -4.934425 -7.532972 
104.180283 -95.321526 87.465118 52.977717 1.172243 66.517211 5.688331 4.911293 -22.503444 -14.801731 3.412069 75.886593 1.221434 -0.754856 0.845764 nan nan nan -8.643138 -6.670205 -32.813866 -7.638745 -19.877027 58.287439 4.048580 -10.917276 4.955470 nan nan nan 2.340713 -4.155134 45.965411 2.399892 -10.091771 0.641796 2.807868 -3.721758 2.307458 -15.093511 0.338180 13.686205 9.732330 9.460035 -25.744807 4.947181 -22.150811 -1.833524 -21.564757 -6.662868 -5.544916 124.203577 -72.916962 -93.192693 3.039092 -8.159295 6.498409 -5.078828 9.272941 -2.909173 53.957459 -16.927910 -4.414886 -60.802356 75.614611 -35.374310 12.515960 -5.339033 -8.073357 
105.101929 -96.341194 87.532143 53.535412 1.355041 66.584433 6.597698 5.954209 -23.723667 -13.509280 4.785110 77.843051 0.646117 -0.508875 1.189979 nan nan nan -9.158365 -7.597974 -32.249422 -6.161352 -20.785842 54.141118 4.996222 -9.481404 6.289758 nan nan nan 2.887899 -4.304797 46.723997 2.511364 -10.625911 1.282560 3.073934 -3.874057 1.640959 -15.670244 0.550635 13.788021 9.846522 9.528757 -26.059163 5.852025 -23.304972 -2.067243 -21.888939 -7.244677 -6.411563 117.529305 -73.262643 -86.536453 4.012649 -7.938686 7.615310 -5.763762 9.884476 -3.029878 54.203505 -15.623971 -4.968749 -64.810658 75.958292 -39.581484 9.789759 -5.074784 -9.105336 
106.051147 -97.398865 87.512886 53.962973 1.435488 66.815118 7.704940 6.603587 -24.881119 -11.754295 6.818070 79.487959 -0.065986 0.297262 -0.040265 nan nan nan -9.677554 -8.424301 -31.863496 -4.439161 -21.233890 50.301760 6.306066 -7.792811 7.010685 nan nan nan 3.308867 -4.482755 47.139465 2.595087 -10.988330 1.844496 3.219429 -3.902003 1.104100 -15.908829 1.132400 13.984928 9.774830 9.254353 -26.269969 6.246752 -24.509377 -2.038784 -22.103555 -7.999152 -7.268433 108.995135 -73.623109 -78.418640 3.923633 -7.195534 8.382259 -5.901725 10.285884 -2.977377 54.107295 -13.763825 -5.192161 -67.990300 76.328761 -41.281521 4.292707 -4.996383 -5.050815 
107.004173 -98.521133 87.419693 54.191116 1.513450 67.019501 8.972761 7.610556 -25.845199 -9.803559 8.825571 80.871887 -0.377259 0.934160 -1.940111 nan nan nan -9.902835 -9.040142 -31.498484 -2.768957 -21.083856 46.787734 7.337565 -6.193837 7.277944 nan nan nan 3.558672 -4.551596 47.459727 2.699708 -11.170951 2.752905 3.368357 -3.895366 0.335191 -15.928444 1.574504 13.833832 9.627696 8.949394 -25.944184 6.457851 -25.634245 -2.232146 -22.377763 -8.979673 -7.911715 100.560024 -73.922105 -70.554409 4.385761 -7.043336 9.898154 -5.978515 10.898445 -3.164412 54.075519 -11.617354 -5.130715 -72.868924 75.995928 -46.415413 1.033839 -4.280247 -3.201072 
